<?xml version="1.0" encoding="UTF-8"?>
<!DOCTYPE svg PUBLIC "-//W3C//DTD SVG 1.1//EN" "http://www.w3.org/Graphics/SVG/1.1/DTD/svg11.dtd">
<!-- Creator: CorelDRAW X8 -->
<svg xmlns="http://www.w3.org/2000/svg" xml:space="preserve" width="2.044in" height="0.931in" version="1.1" style="shape-rendering:geometricPrecision; text-rendering:geometricPrecision; image-rendering:optimizeQuality; fill-rule:evenodd; clip-rule:evenodd"
viewBox="0 0 2044 931"
 xmlns:xlink="http://www.w3.org/1999/xlink">
 <defs>
  <style type="text/css">
   <![CDATA[
    .str0 {stroke:#5F912E;stroke-width:13.7756;stroke-dasharray:13.775591 13.775591}
    .fil3 {fill:none}
    .fil0 {fill:#134313}
    .fil1 {fill:#5F912E}
    .fil2 {fill:#5F912E;fill-rule:nonzero}
   ]]>
  </style>
 </defs>
 <g id="Layer_x0020_1">
  <metadata id="CorelCorpID_0Corel-Layer"/>
  <g id="_791216860496">
   <path class="fil0" d="M1776 357c6,-2 15,-3 26,3 28,13 105,54 155,11 49,-42 64,-74 87,-133 -44,2 -58,0 -114,-10 -55,-11 -89,-9 -118,5 -28,14 -64,44 -73,59 0,-13 1,-40 2,-44 -16,4 -20,4 -63,3 -43,-2 -69,11 -89,53 -12,-9 -48,-42 -91,-56 -21,-7 -41,-9 -63,-8 -48,2 -94,17 -127,51 -28,27 -43,62 -49,78 -10,32 -12,83 -12,100 -22,-12 -107,-91 -136,-120 -29,-30 -15,-50 18,-35 24,11 63,29 90,18 29,-12 41,-64 37,-91 -6,3 -27,21 -83,10 -56,-10 -143,-16 -181,44 -38,60 5,125 46,158 29,23 68,57 90,83 25,29 32,72 -23,68 -30,-2 -45,-15 -51,-27 -8,-14 -6,-41 -7,-57 0,0 -77,37 -83,60 -3,9 6,13 6,13 0,0 -37,14 -36,-32 1,-46 0,-197 0,-203 0,-10 10,-77 -86,-112 -95,-35 -272,-8 -326,16 -2,-31 8,-107 -87,-152 -173,-57 -238,66 -236,57 2,-10 3,-39 6,-59l-79 -1c-14,0 -96,-8 -112,105 21,-3 51,-13 50,35 1,98 0,303 0,335 0,32 -12,72 -21,82 17,0 166,0 166,0 0,0 51,-26 66,-97 -37,-5 -50,-29 -50,-60 0,-31 -1,-241 -1,-245 0,-3 2,-75 75,-73 73,1 67,96 67,96 0,22 0,44 0,66 0,0 -21,39 -117,23 45,57 124,52 124,52 0,54 0,108 0,161 0,0 1,46 -23,71 33,2 136,1 148,0 13,0 56,-15 90,-72 31,82 114,82 114,82 46,1 81,-18 112,-43l0 39 94 -2c39,0 61,-15 74,-44 32,40 79,57 139,54 86,-2 127,-36 149,-93 26,41 60,85 151,97 95,0 184,-42 173,-77 -11,-24 -40,-5 -86,2 -69,3 -101,-28 -115,-76 106,-36 187,-84 206,-186 19,0 27,16 27,53 0,70 0,140 0,211 -3,26 -12,48 -29,65 48,0 93,0 140,0 29,1 64,-40 58,-75 -36,-3 -45,-24 -45,-60 0,-42 0,-85 0,-127 1,-30 13,-44 26,-49zm-1253 30c0,48 0,96 0,143 4,21 21,33 58,32 -11,-54 -5,-101 24,-138 48,-60 151,-74 210,-21 1,-49 -15,-93 -80,-98 -86,3 -156,31 -212,82zm241 47c27,0 51,21 51,81 0,45 -8,80 -55,80 -28,-2 -44,-35 -44,-80 0,-46 20,-81 48,-81zm611 14c0,0 87,-27 105,-74 17,-47 -40,-80 -75,-54 -40,29 -30,128 -30,128z"/>
   <path class="fil0" d="M992 239c0,0 39,-50 117,-35 77,16 173,-52 169,-204 -30,18 -56,27 -76,31 -32,7 -55,3 -90,14 -56,17 -133,65 -120,194z"/>
  </g>
  <g id="_791216861200">
   <path class="fil1" d="M1762 357c6,-2 15,-3 26,3 28,13 106,54 155,11 49,-42 65,-74 87,-133 -43,2 -58,0 -113,-10 -56,-11 -90,-9 -119,5 -28,14 -64,44 -73,59 0,-13 2,-40 2,-44 -16,4 -19,4 -63,3 -43,-2 -69,11 -89,53 -12,-9 -48,-42 -91,-56 -21,-7 -41,-9 -63,-8 -48,2 -93,17 -127,51 -28,27 -43,62 -48,78 -11,32 -13,83 -13,100 -22,-12 -106,-91 -135,-120 -30,-30 -16,-50 17,-35 25,11 64,29 91,18 28,-12 40,-64 37,-91 -6,3 -28,21 -84,10 -56,-10 -143,-16 -181,44 -37,60 5,125 46,158 29,23 68,57 90,83 25,29 33,72 -23,68 -30,-2 -45,-15 -51,-27 -7,-14 -6,-41 -7,-57 0,0 -77,37 -83,60 -3,9 6,13 6,13 0,0 -36,14 -36,-32 1,-46 0,-197 0,-203 0,-10 10,-77 -85,-112 -96,-35 -273,-8 -327,16 -2,-31 8,-107 -87,-152 -173,-57 -237,66 -236,57 2,-10 3,-39 6,-59l-78 -1c-15,0 -97,-8 -113,105 22,-3 51,-13 50,35 1,98 0,303 0,335 1,32 -12,72 -21,82 18,0 166,0 166,0 0,0 51,-26 67,-97 -38,-5 -51,-29 -51,-60 0,-31 -1,-241 -1,-245 0,-3 3,-75 76,-73 73,1 66,96 66,96 0,22 0,44 0,66 0,0 -20,39 -117,23 45,57 125,52 125,52 0,54 0,108 0,161 0,0 1,46 -24,71 33,2 136,1 149,0 12,0 55,-15 90,-72 30,82 113,82 113,82 46,1 81,-18 112,-43l0 39 94 -2c39,0 61,-15 74,-44 32,40 79,57 140,54 85,-2 126,-36 148,-93 26,41 61,85 151,97 96,0 184,-42 173,-77 -11,-24 -40,-5 -86,2 -68,3 -100,-28 -115,-76 106,-36 188,-84 207,-186 18,0 26,16 26,53 0,70 0,140 0,211 -3,26 -11,48 -28,65 47,0 92,0 140,0 28,1 63,-40 58,-75 -36,-3 -46,-24 -45,-60 0,-42 0,-85 0,-127 0,-30 12,-44 25,-49zm-1252 30c0,48 0,96 0,143 4,21 21,33 58,32 -12,-54 -6,-101 23,-138 48,-60 151,-74 210,-21 1,-49 -15,-93 -79,-98 -87,3 -157,31 -212,82zm240 47c27,0 51,21 52,81 0,45 -8,80 -56,80 -28,-2 -43,-35 -43,-80 0,-46 19,-81 47,-81zm611 14c0,0 88,-27 105,-74 17,-47 -40,-80 -74,-54 -40,29 -31,128 -31,128z"/>
   <path class="fil1" d="M979 239c0,0 38,-50 116,-35 78,16 173,-52 169,-204 -29,18 -56,27 -76,31 -32,7 -55,3 -90,14 -56,17 -132,65 -119,194z"/>
  </g>
  <path class="fil2" d="M71 924c-6,0 -11,-1 -17,-1 -6,-1 -11,-2 -17,-4 -5,-1 -10,-3 -14,-7 -5,-3 -9,-7 -12,-11l1 0c-7,-9 -10,-20 -10,-34 0,-1 0,-2 0,-2 0,-1 0,-2 1,-3l0 0c0,-4 0,-8 1,-12 0,-4 1,-9 2,-14 2,-4 3,-9 5,-15 2,-5 4,-11 6,-17l19 8c-3,7 -5,12 -6,17 -2,5 -3,10 -4,15 -1,4 -2,8 -2,12 0,4 -1,8 -1,11 0,5 1,8 2,12 1,3 3,6 4,9 3,3 6,6 9,7 4,2 7,3 11,4 4,1 8,1 12,1 3,0 7,1 10,1 1,0 4,-1 7,-1 3,0 7,0 10,-1 4,-1 8,-1 12,-2 4,-1 8,-3 11,-4 3,-1 6,-3 8,-5 2,-2 3,-4 3,-7 0,0 -1,-1 -2,-2 -1,0 -2,-1 -4,-3 -2,-1 -4,-2 -6,-3 -3,-1 -5,-2 -8,-3 -4,-2 -8,-3 -12,-3 -5,-1 -9,-2 -13,-2l4 -23 69 0c1,0 3,1 4,1 2,1 3,2 4,3 1,1 2,2 2,3 1,2 1,3 1,5 0,1 0,3 -1,4 0,2 -1,3 -2,4 -1,1 -2,2 -4,2 -1,1 -3,1 -4,1l-15 0c2,3 4,6 5,9 0,3 1,5 1,7 0,6 -2,10 -4,14 -3,5 -6,8 -10,11 -3,3 -8,6 -13,8 -5,2 -10,4 -15,6 -5,1 -10,2 -15,3 -5,0 -9,1 -13,1zm104 -31l-15 16 -16 -16 16 -15 15 15zm34 0l-15 16 -16 -16 15 -15 16 15zm-82 -39c0,-2 0,-3 1,-5 1,-1 1,-2 2,-3 1,-1 3,-2 4,-3 1,0 3,-1 5,-1l9 0 5 0c3,0 6,0 9,0 3,0 6,-1 9,-1 3,-1 6,-2 9,-3 2,-1 4,-2 5,-4 1,-1 1,-3 2,-5 0,-3 -1,-5 -1,-8 -1,-2 -2,-5 -3,-8 -1,-3 -2,-6 -3,-8 -1,-3 -3,-6 -4,-8 -1,-2 -2,-4 -3,-6l21 -10c2,2 3,6 5,10 2,4 3,8 4,12 1,5 2,9 3,13 1,4 1,8 1,11 0,6 -1,11 -3,16 -2,5 -5,9 -9,13 -4,3 -9,6 -15,7 -2,1 -4,1 -7,1 -2,1 -5,1 -7,1 -3,0 -6,0 -8,0 -3,0 -4,0 -6,0l-13 0 0 0c-2,0 -4,0 -5,-1 -1,0 -3,-1 -4,-2 -1,-1 -1,-2 -2,-4 -1,-1 -1,-3 -1,-4zm103 -124c2,20 3,41 4,66 1,18 1,42 -1,69l23 -4c1,-18 2,-43 2,-75 -1,-20 -2,-41 -5,-63l-23 7zm79 135c-8,0 -15,-1 -21,-5 -7,-3 -13,-8 -19,-14l13 -18c6,5 11,8 15,11 5,2 10,3 14,3 1,0 2,0 3,0 1,0 3,0 4,-1 1,0 3,0 4,0 1,-1 2,-1 3,-1 1,-1 2,-1 3,-2 2,0 3,-1 4,-1 1,-1 2,-1 3,-2 0,0 1,-1 2,-1l-29 -69 21 -9c2,5 5,12 8,18 2,6 5,13 9,22 3,8 7,18 12,29l1 3c1,2 2,4 3,6 0,2 2,3 3,4 1,2 3,3 5,3 2,1 4,1 7,1 2,0 3,1 5,1 1,1 2,2 3,3 2,1 2,2 3,3 1,2 1,3 1,5 0,1 0,3 -1,4 -1,2 -1,3 -3,4 -1,1 -2,2 -3,2 -2,1 -3,1 -5,1 -3,0 -7,0 -10,-1 -3,0 -5,-1 -8,-2 -2,-1 -4,-2 -6,-3 -2,-2 -3,-3 -5,-5 -2,1 -4,3 -7,4 -2,1 -5,2 -7,3 -4,2 -8,3 -12,3 -4,1 -9,1 -13,1zm25 -142l-17 17 -17 -17 17 -17 17 17zm118 90c-2,-3 -5,-5 -8,-7 -2,-2 -5,-3 -8,-5 -3,-1 -7,-2 -10,-2 -3,0 -6,1 -8,2 -3,1 -4,2 -6,4 -2,2 -3,3 -3,6 -1,2 -2,4 -2,7 0,3 1,6 3,9 1,2 3,5 6,7 2,1 5,3 8,4 4,1 7,1 11,1 3,0 7,-1 10,-1 4,-1 7,-1 10,-2 3,0 6,-1 9,-2l3 23c-4,1 -8,2 -12,3 -5,1 -10,2 -16,2 -6,1 -13,2 -20,2 -8,1 -16,1 -26,1l-19 0c-2,0 -4,0 -5,-1 -1,0 -3,-1 -4,-2 -1,-1 -2,-2 -2,-4 -1,-1 -1,-3 -1,-4 0,-2 0,-3 1,-5 1,-1 1,-2 2,-3 1,-1 3,-2 4,-3 2,0 3,-1 5,-1l19 0c-3,-4 -6,-7 -7,-11 -1,-4 -2,-9 -2,-13 0,-6 2,-11 4,-16 2,-5 5,-10 8,-14 4,-3 8,-6 13,-8 5,-3 11,-4 17,-4 3,0 5,0 8,1 3,1 5,1 8,2 2,1 5,2 7,3 2,1 4,2 6,4 4,2 8,5 11,9l-14 18zm-16 -70l-17 17 -18 -17 17 -17 18 17zm181 122c-11,0 -21,-1 -30,-2 -9,-1 -16,-3 -23,-5 -13,-5 -22,-13 -26,-22l0 0c-3,-5 -4,-11 -4,-17 0,-3 0,-6 1,-9 0,-3 1,-7 2,-10 1,-1 2,-3 2,-4 1,-2 1,-3 2,-4 1,-1 1,-2 2,-4 1,-1 2,-2 2,-4l17 14c-1,2 -2,3 -3,6 -2,2 -3,5 -4,7 -1,3 -2,6 -2,8 0,3 0,5 1,7 1,2 4,5 7,7 4,2 9,3 14,5 6,1 12,2 19,3 7,1 14,1 23,1 4,0 9,0 15,0 5,-1 11,-1 17,-2 6,-1 12,-2 18,-3 6,-2 11,-4 16,-6 -1,-4 -2,-7 -3,-10 -1,-3 -3,-7 -4,-10 -2,-3 -3,-6 -5,-9 -2,-3 -4,-6 -5,-9l19 -12c0,0 0,0 1,2 1,2 2,4 4,7 1,3 3,6 4,10 1,4 3,7 4,11 1,4 2,7 3,11 1,3 1,6 1,9 0,3 0,6 -2,9 -2,3 -5,6 -9,8 -3,2 -6,4 -10,5 -3,2 -7,3 -11,4 -5,2 -9,3 -14,4 -4,1 -9,2 -13,2 -5,1 -9,1 -14,2 -4,0 -9,0 -12,0zm0 -91l-15 15 -15 -15 15 -15 15 15zm34 0l-15 15 -15 -15 15 -15 15 15zm155 35c0,5 0,9 -1,13 0,5 -1,9 -3,13 -1,4 -3,7 -5,11 -3,3 -5,6 -8,8 -4,4 -9,8 -14,10 -6,3 -11,5 -17,6 -7,1 -13,2 -19,2 -7,0 -13,0 -19,-1l4 -23c3,0 6,1 8,1 3,0 5,0 7,0 2,0 4,0 6,0 2,0 4,0 6,0 0,-6 -1,-11 -3,-16 -1,-6 -3,-11 -5,-16 -3,-5 -5,-10 -8,-15 -3,-5 -5,-10 -8,-15 -3,-4 -6,-8 -8,-12 -3,-4 -5,-7 -7,-10 -2,-2 -4,-5 -5,-6 -1,-2 -2,-3 -2,-3l17 -17c5,7 9,13 13,20 5,7 8,13 12,20 3,6 6,12 9,18 3,6 5,12 7,17 2,5 3,10 5,15 1,4 2,7 3,10 2,-1 4,-2 6,-4 3,-2 4,-4 6,-7 2,-3 3,-6 4,-10 1,-3 1,-7 0,-11l-14 -78 22 -5c0,0 1,1 1,3 0,3 1,6 2,10 0,4 1,9 2,15 0,5 1,11 2,18 1,6 1,12 2,19 1,7 1,14 2,20zm6 96c9,-1 17,-4 24,-6 7,-3 13,-7 19,-10 5,-4 9,-8 12,-12 3,-4 6,-8 7,-12 -2,0 -3,0 -5,0 -2,0 -3,0 -5,0 -1,0 -3,0 -4,0 -2,0 -3,0 -4,0 -7,-1 -13,-2 -18,-4 -6,-3 -10,-6 -13,-10 -2,-3 -4,-6 -5,-9 -1,-4 -1,-8 -1,-12 0,-3 0,-6 0,-9 1,-3 2,-6 3,-9 1,-3 2,-6 3,-8 2,-3 3,-5 5,-7 3,-4 7,-8 11,-10 4,-2 8,-3 12,-3 9,0 18,4 25,12 3,3 5,6 7,10 2,3 4,7 5,11 2,4 3,8 4,12 1,5 2,9 2,13l4 0c2,0 3,1 4,1 2,1 3,2 4,3 1,1 2,2 3,3 0,2 1,3 1,5 0,1 -1,3 -1,4 -1,2 -2,3 -3,4 -1,1 -2,2 -4,2 -1,1 -2,1 -4,1l-6 0c-2,9 -5,17 -10,24 -5,7 -11,13 -18,19 -6,5 -14,9 -22,13 -8,3 -17,5 -26,7l-6 -23zm41 -98c-2,0 -3,1 -5,2 -2,1 -3,3 -5,5 -1,2 -3,4 -4,7 -1,2 -1,5 -1,7 0,3 0,5 2,6 1,2 2,3 4,4 2,2 4,2 6,3 3,0 5,1 7,1 1,0 3,0 4,0 2,0 3,0 5,0 1,0 3,0 5,0 1,0 3,0 4,0 0,-3 -1,-7 -2,-10 -1,-2 -2,-5 -3,-8 -2,-2 -3,-5 -5,-7 -1,-2 -2,-4 -4,-5l0 0c-1,-1 -2,-2 -3,-3 -2,-1 -3,-2 -5,-2zm31 47c0,-2 1,-3 1,-5 1,-1 2,-2 3,-3 1,-1 2,-2 3,-3 2,0 3,-1 5,-1l1 0c6,0 11,0 13,-2l0 0c1,0 2,-1 3,-2 1,-1 2,-2 3,-3 2,-3 4,-6 5,-9 1,-4 2,-9 3,-14l0 0c1,-2 1,-4 2,-7 1,-2 2,-4 2,-6l21 6c-1,2 -1,3 -2,4 0,2 0,3 -1,4 0,1 0,3 0,4 -1,1 -1,3 -1,5 0,2 1,4 2,6 1,2 1,4 2,6 1,-2 3,-4 4,-7 2,-2 3,-5 5,-8 2,-3 4,-5 7,-8 2,-3 5,-6 8,-9 5,-5 11,-10 18,-13 6,-3 13,-6 19,-7 4,0 7,-1 10,-1 6,0 12,1 17,3 5,3 10,6 14,10l0 0c4,4 7,8 8,13 2,4 3,9 3,14 -1,8 -4,15 -8,21l15 0c1,0 3,1 4,1 2,1 3,2 4,3 1,1 2,2 2,3 1,2 1,3 1,5 0,1 0,3 -1,4 0,2 -1,3 -2,4 -1,1 -2,2 -4,2 -1,1 -3,1 -4,1l-23 0c-6,0 -11,0 -15,0 -4,-1 -8,-1 -10,-2 -6,1 -13,3 -19,3 -6,1 -12,1 -18,1 -4,0 -8,0 -12,0 -4,-1 -7,-1 -9,-1 0,0 -1,0 -1,0 -1,0 -1,0 -1,0 -3,-1 -5,-1 -8,-2 -2,0 -4,-1 -7,-2l1 0c-3,-1 -6,-3 -8,-5 -2,-1 -4,-3 -6,-6 0,0 0,0 0,1 0,0 0,-1 0,-1 -2,2 -4,4 -6,6 -3,1 -5,3 -8,4l1 0c-7,3 -15,4 -24,4 -2,0 -3,0 -5,-1 -1,0 -2,-1 -3,-2 -1,-1 -2,-2 -3,-4 0,-1 -1,-3 -1,-4zm102 -36c-2,2 -4,4 -6,7 -2,2 -4,4 -5,6 -2,2 -4,4 -5,6 -1,2 -2,4 -3,5 5,1 9,1 15,1 5,1 10,0 16,0 5,0 11,-1 16,-2 5,-1 9,-3 13,-5 5,-2 8,-4 11,-7 2,-2 4,-6 5,-9 -1,-3 -2,-6 -4,-8 -2,-2 -4,-4 -7,-5 -2,-1 -5,-2 -8,-3 -3,0 -6,0 -8,0 -3,1 -5,1 -8,2 -3,1 -5,2 -8,3 -3,1 -5,2 -8,4 -2,2 -4,3 -6,5zm67 36c0,-2 0,-3 1,-5 1,-1 1,-2 3,-3 1,-1 2,-2 3,-3 2,0 3,-1 5,-1l16 0c7,0 15,0 22,-2 8,-1 15,-3 22,-6 7,-2 14,-5 21,-8 7,-3 13,-5 19,-8 -2,-1 -5,-1 -7,-2 -3,-1 -6,-2 -8,-4 -3,-1 -6,-2 -9,-3 -3,-2 -6,-3 -9,-4 -3,-1 -6,-2 -8,-3 -3,-1 -6,-1 -9,-1 -2,0 -4,0 -6,1 -2,1 -4,2 -6,3 -2,1 -3,3 -5,4 -1,2 -2,3 -3,4 -1,1 -2,2 -3,3 0,1 -1,2 -1,2l-17 -10c2,-4 4,-8 8,-12 3,-3 6,-6 10,-9 4,-3 8,-5 11,-7 4,-1 8,-2 12,-2 3,0 6,0 9,1 3,1 6,1 9,3 3,1 7,2 10,3 3,2 6,3 10,5 3,2 7,3 11,5 4,1 8,3 13,4 4,1 8,3 13,3 4,1 8,2 12,2l-3 21c-3,1 -5,2 -7,3 -2,2 -4,3 -6,4 1,2 3,4 5,6 2,1 5,2 8,3 2,0 5,1 8,1 2,0 4,0 6,0l1 0c1,0 3,1 4,1 2,1 3,2 4,3 1,1 2,2 2,3 1,2 1,3 1,5 0,1 0,3 -1,4 0,2 -1,3 -2,4 -1,1 -2,2 -4,2 -1,1 -3,1 -4,1l-1 0c-6,0 -12,0 -17,-1 -5,-1 -9,-3 -13,-5 -4,-2 -8,-4 -11,-7 -3,-3 -5,-6 -7,-10 -6,3 -12,6 -19,9 -6,2 -13,5 -20,7 -7,2 -14,4 -22,5 -7,2 -15,2 -23,2l-16 0c-2,0 -3,0 -5,-1 -1,0 -2,-1 -3,-2 -2,-1 -2,-2 -3,-4 -1,-1 -1,-3 -1,-4zm145 0c0,-2 1,-3 1,-5 1,-1 2,-2 3,-3 1,-1 2,-2 3,-3 2,0 3,-1 5,-1 4,0 8,-1 11,-2 3,-2 6,-4 9,-7 2,-2 4,-5 6,-8 2,-4 4,-7 5,-10 2,-3 4,-7 5,-10 2,-3 4,-6 6,-8 3,-3 6,-6 10,-8 3,-2 7,-3 11,-3 5,0 10,1 14,3 4,2 8,5 11,9 2,3 4,7 6,10 2,4 3,9 3,13l0 0c0,2 1,5 1,7 0,3 -1,6 -1,9 -1,3 -1,6 -2,8 -2,5 -5,9 -8,12 -3,3 -7,5 -11,6 -1,1 -3,1 -4,1 -1,0 -3,0 -4,0 -2,0 -5,0 -8,-1 -3,0 -6,-1 -8,-2 -2,-1 -3,-1 -5,-2 -1,-1 -3,-2 -4,-3 -2,0 -3,-1 -5,-2 -2,-1 -3,-2 -4,-3 -3,2 -5,4 -8,6 -2,2 -5,3 -8,4 -2,2 -5,3 -8,3 -3,1 -7,1 -10,1 -2,0 -3,0 -5,-1 -1,0 -2,-1 -3,-2 -1,-1 -2,-2 -3,-4 0,-1 -1,-3 -1,-4zm59 -22c2,1 4,3 7,4 2,1 5,2 7,3 2,1 5,2 7,2 2,1 3,1 5,1 0,0 1,0 2,0 0,-1 1,-1 2,-2 0,0 1,-1 1,-2 1,-1 1,-2 2,-4 0,-1 0,-3 0,-5 0,0 0,-1 -1,-3 0,-1 -1,-3 -2,-4 0,-2 -1,-3 -2,-5 -1,-1 -2,-3 -4,-4 -1,-1 -2,-2 -4,-3 -1,-1 -3,-2 -5,-2 -2,0 -3,2 -5,4 -2,3 -4,7 -6,12l-4 8z"/>
  <line class="fil3 str0" x1="1343" y1="858" x2="2032" y2= "858" />
 </g>
</svg>
